HIERARCHY
ROOT Root
{
  OFFSET 0.0 0.0 0.0
  CHANNELS 6 Xposition Yposition Zposition Zrotation Yrotation Xrotation
  JOINT Hips
  {
    OFFSET 0.0 100.0 0.0
    CHANNELS 6 Xposition Yposition Zposition Zrotation Yrotation Xrotation
    JOINT Spine1
    {
      OFFSET -0.013727 5.003763 -0.053727
      CHANNELS 3 Zrotation Yrotation Xrotation
      JOINT Spine2
      {
        OFFSET -0.0 7.125301 -0.029825
        CHANNELS 3 Zrotation Yrotation Xrotation
        JOINT Chest
        {
          OFFSET -1e-06 7.550063 -0.815971
          CHANNELS 3 Zrotation Yrotation Xrotation
          JOINT Neck1
          {
            OFFSET -0.181677 26.311295 -0.553348
            CHANNELS 3 Zrotation Yrotation Xrotation
            JOINT Neck2
            {
              OFFSET -3e-06 7.709397 2.302585
              CHANNELS 3 Zrotation Yrotation Xrotation
              JOINT Head
              {
                OFFSET -5e-06 6.128916 1.953709
                CHANNELS 3 Zrotation Yrotation Xrotation
                JOINT HeadEnd
                {
                  OFFSET 0.003598 16.065403 -1.835379
                  CHANNELS 3 Zrotation Yrotation Xrotation
                }
                JOINT Jaw
                {
                  OFFSET 0.002637 0.475592 3.094941
                  CHANNELS 3 Zrotation Yrotation Xrotation
                }
                JOINT LeftEye
                {
                  OFFSET 3.206381 5.380205 7.586883
                  CHANNELS 3 Zrotation Yrotation Xrotation
                }
                JOINT RightEye
                {
                  OFFSET -3.22244 5.361869 7.558234
                  CHANNELS 3 Zrotation Yrotation Xrotation
                }
              }
            }
          }
          JOINT LeftShoulder
          {
            OFFSET 1.621652 23.237164 5.113413
            CHANNELS 3 Zrotation Yrotation Xrotation
            JOINT LeftArm
            {
              OFFSET 14.919846 2e-06 -5.502326
              CHANNELS 3 Zrotation Yrotation Xrotation
              JOINT LeftForeArm
              {
                OFFSET 28.739307 0.0 -0.002588
                CHANNELS 3 Zrotation Yrotation Xrotation
                JOINT LeftHand
                {
                  OFFSET 27.093981 -1e-06 0.002609
                  CHANNELS 3 Zrotation Yrotation Xrotation
                  JOINT LeftHandThumb1
                  {
                    OFFSET 2.276482 -1.392045 3.191413
                    CHANNELS 3 Zrotation Yrotation Xrotation
                    JOINT LeftHandThumb2
                    {
                      OFFSET 4.012836 -1.828127 1.641654
                      CHANNELS 3 Zrotation Yrotation Xrotation
                      JOINT LeftHandThumb3
                      {
                        OFFSET 2.798515 0.0 -3e-06
                        CHANNELS 3 Zrotation Yrotation Xrotation
                        JOINT LeftHandThumbEnd
                        {
                          OFFSET 3.180793 -4e-06 4e-06
                          CHANNELS 3 Zrotation Yrotation Xrotation
                        }
                      }
                    }
                  }
                  JOINT LeftHandIndex1
                  {
                    OFFSET 3.247555 -0.531998 2.296169
                    CHANNELS 3 Zrotation Yrotation Xrotation
                    JOINT LeftHandIndex2
                    {
                      OFFSET 6.364578 0.01206 0.1786
                      CHANNELS 3 Zrotation Yrotation Xrotation
                      JOINT LeftHandIndex3
                      {
                        OFFSET 3.662364 0.0 0.0
                        CHANNELS 3 Zrotation Yrotation Xrotation
                        JOINT LeftHandIndex4
                        {
                          OFFSET 2.329242 4e-06 4e-06
                          CHANNELS 3 Zrotation Yrotation Xrotation
                          JOINT LeftHandIndexEnd
                          {
                            OFFSET 2.759615 -0.180537 -0.113024
                            CHANNELS 3 Zrotation Yrotation Xrotation
                          }
                        }
                      }
                    }
                  }
                  JOINT LeftHandMiddle1
                  {
                    OFFSET 3.163495 0.240981 1.000332
                    CHANNELS 3 Zrotation Yrotation Xrotation
                    JOINT LeftHandMiddle2
                    {
                      OFFSET 6.19078 -0.259278 -1.002548
                      CHANNELS 3 Zrotation Yrotation Xrotation
                      JOINT LeftHandMiddle3
                      {
                        OFFSET 4.35652 -4e-06 -1e-06
                        CHANNELS 3 Zrotation Yrotation Xrotation
                        JOINT LeftHandMiddle4
                        {
                          OFFSET 2.996877 -8e-06 0.0
                          CHANNELS 3 Zrotation Yrotation Xrotation
                          JOINT LeftHandMiddleEnd
                          {
                            OFFSET 2.304287 -0.294569 -0.031741
                            CHANNELS 3 Zrotation Yrotation Xrotation
                          }
                        }
                      }
                    }
                  }
                  JOINT LeftHandRing1
                  {
                    OFFSET 2.882643 -0.053652 -0.322543
                    CHANNELS 3 Zrotation Yrotation Xrotation
                    JOINT LeftHandRing2
                    {
                      OFFSET 5.854541 -0.486202 -1.373841
                      CHANNELS 3 Zrotation Yrotation Xrotation
                      JOINT LeftHandRing3
                      {
                        OFFSET 4.350578 0.0 3e-06
                        CHANNELS 3 Zrotation Yrotation Xrotation
                        JOINT LeftHandRing4
                        {
                          OFFSET 2.651321 7e-06 2e-06
                          CHANNELS 3 Zrotation Yrotation Xrotation
                          JOINT LeftHandRingEnd
                          {
                            OFFSET 1.936105 0.077687 -7.1e-05
                            CHANNELS 3 Zrotation Yrotation Xrotation
                          }
                        }
                      }
                    }
                  }
                  JOINT LeftHandPinky1
                  {
                    OFFSET 2.8655 -0.310005 -1.600378
                    CHANNELS 3 Zrotation Yrotation Xrotation
                    JOINT LeftHandPinky2
                    {
                      OFFSET 5.087849 -1.331141 -1.77123
                      CHANNELS 3 Zrotation Yrotation Xrotation
                      JOINT LeftHandPinky3
                      {
                        OFFSET 3.070974 4e-06 0.0
                        CHANNELS 3 Zrotation Yrotation Xrotation
                        JOINT LeftHandPinky4
                        {
                          OFFSET 1.549672 0.0 1e-06
                          CHANNELS 3 Zrotation Yrotation Xrotation
                          JOINT LeftHandPinkyEnd
                          {
                            OFFSET 1.944893 -0.157802 0.057219
                            CHANNELS 3 Zrotation Yrotation Xrotation
                          }
                        }
                      }
                    }
                  }
                }
              }
            }
          }
          JOINT RightShoulder
          {
            OFFSET -1.380118 23.180309 5.214158
            CHANNELS 3 Zrotation Yrotation Xrotation
            JOINT RightArm
            {
              OFFSET -15.037196 1.2e-05 -5.545604
              CHANNELS 3 Zrotation Yrotation Xrotation
              JOINT RightForeArm
              {
                OFFSET -28.736639 2e-06 -0.002597
                CHANNELS 3 Zrotation Yrotation Xrotation
                JOINT RightHand
                {
                  OFFSET -27.133619 -0.0 0.002613
                  CHANNELS 3 Zrotation Yrotation Xrotation
                  JOINT RightHandThumb1
                  {
                    OFFSET -2.274032 -1.383988 3.163127
                    CHANNELS 3 Zrotation Yrotation Xrotation
                    JOINT RightHandThumb2
                    {
                      OFFSET -4.011429 -1.827466 1.640914
                      CHANNELS 3 Zrotation Yrotation Xrotation
                      JOINT RightHandThumb3
                      {
                        OFFSET -2.794935 -4e-06 -3e-06
                        CHANNELS 3 Zrotation Yrotation Xrotation
                        JOINT RightHandThumbEnd
                        {
                          OFFSET -3.183852 4e-06 1e-06
                          CHANNELS 3 Zrotation Yrotation Xrotation
                        }
                      }
                    }
                  }
                  JOINT RightHandIndex1
                  {
                    OFFSET -3.253266 -0.520057 2.282866
                    CHANNELS 3 Zrotation Yrotation Xrotation
                    JOINT RightHandIndex2
                    {
                      OFFSET -6.341917 0.012471 0.178266
                      CHANNELS 3 Zrotation Yrotation Xrotation
                      JOINT RightHandIndex3
                      {
                        OFFSET -3.654871 -8e-06 -0.0
                        CHANNELS 3 Zrotation Yrotation Xrotation
                        JOINT RightHandIndex4
                        {
                          OFFSET -2.327586 0.0 1e-06
                          CHANNELS 3 Zrotation Yrotation Xrotation
                          JOINT RightHandIndexEnd
                          {
                            OFFSET -2.76179 -0.180656 -0.113078
                            CHANNELS 3 Zrotation Yrotation Xrotation
                          }
                        }
                      }
                    }
                  }
                  JOINT RightHandMiddle1
                  {
                    OFFSET -3.168106 0.246593 1.00103
                    CHANNELS 3 Zrotation Yrotation Xrotation
                    JOINT RightHandMiddle2
                    {
                      OFFSET -6.180828 -0.258836 -1.000895
                      CHANNELS 3 Zrotation Yrotation Xrotation
                      JOINT RightHandMiddle3
                      {
                        OFFSET -4.348901 0.0 -0.0
                        CHANNELS 3 Zrotation Yrotation Xrotation
                        JOINT RightHandMiddle4
                        {
                          OFFSET -3.00024 -4e-06 -2e-06
                          CHANNELS 3 Zrotation Yrotation Xrotation
                          JOINT RightHandMiddleEnd
                          {
                            OFFSET -2.30252 -0.29437 -0.031706
                            CHANNELS 3 Zrotation Yrotation Xrotation
                          }
                        }
                      }
                    }
                  }
                  JOINT RightHandRing1
                  {
                    OFFSET -2.88569 -0.067952 -0.308858
                    CHANNELS 3 Zrotation Yrotation Xrotation
                    JOINT RightHandRing2
                    {
                      OFFSET -5.854198 -0.48613 -1.373731
                      CHANNELS 3 Zrotation Yrotation Xrotation
                      JOINT RightHandRing3
                      {
                        OFFSET -4.33881 -4e-06 -0.0
                        CHANNELS 3 Zrotation Yrotation Xrotation
                        JOINT RightHandRing4
                        {
                          OFFSET -2.654903 -4e-06 4e-06
                          CHANNELS 3 Zrotation Yrotation Xrotation
                          JOINT RightHandRingEnd
                          {
                            OFFSET -1.933568 0.077527 -5.2e-05
                            CHANNELS 3 Zrotation Yrotation Xrotation
                          }
                        }
                      }
                    }
                  }
                  JOINT RightHandPinky1
                  {
                    OFFSET -2.866425 -0.342796 -1.584145
                    CHANNELS 3 Zrotation Yrotation Xrotation
                    JOINT RightHandPinky2
                    {
                      OFFSET -5.091371 -1.332055 -1.772385
                      CHANNELS 3 Zrotation Yrotation Xrotation
                      JOINT RightHandPinky3
                      {
                        OFFSET -3.062664 -4e-06 1e-06
                        CHANNELS 3 Zrotation Yrotation Xrotation
                        JOINT RightHandPinky4
                        {
                          OFFSET -1.546529 4e-06 -2e-06
                          CHANNELS 3 Zrotation Yrotation Xrotation
                          JOINT RightHandPinkyEnd
                          {
                            OFFSET -1.945119 -0.157718 0.057211
                            CHANNELS 3 Zrotation Yrotation Xrotation
                          }
                        }
                      }
                    }
                  }
                }
              }
            }
          }
        }
      }
    }
    JOINT LeftLeg
    {
      OFFSET 10.043214 -8.434526 2.595655
      CHANNELS 3 Zrotation Yrotation Xrotation
      JOINT LeftShin
      {
        OFFSET -1e-06 -43.221752 -0.802913
        CHANNELS 3 Zrotation Yrotation Xrotation
        JOINT LeftFoot
        {
          OFFSET 1e-06 -42.155094 -3.481523
          CHANNELS 3 Zrotation Yrotation Xrotation
          JOINT LeftToeBase
          {
            OFFSET 0.0 -5.059472 13.231529
            CHANNELS 3 Zrotation Yrotation Xrotation
            JOINT LeftToeEnd
            {
              OFFSET -0.009607 -1.647619 6.513017
              CHANNELS 3 Zrotation Yrotation Xrotation
            }
          }
        }
      }
    }
    JOINT RightLeg
    {
      OFFSET -10.047278 -8.29526 2.620317
      CHANNELS 3 Zrotation Yrotation Xrotation
      JOINT RightShin
      {
        OFFSET 1e-06 -43.362206 -0.805556
        CHANNELS 3 Zrotation Yrotation Xrotation
        JOINT RightFoot
        {
          OFFSET 2e-06 -42.117393 -3.478398
          CHANNELS 3 Zrotation Yrotation Xrotation
          JOINT RightToeBase
          {
            OFFSET -0.0 -5.079609 13.284196
            CHANNELS 3 Zrotation Yrotation Xrotation
            JOINT RightToeEnd
            {
              OFFSET 0.009532 -1.634378 6.460591
              CHANNELS 3 Zrotation Yrotation Xrotation
            }
          }
        }
      }
    }
  }
}
MOTION
Frames: 4
Frame Time: 0.03333333333333333
0.0 0.0 0.0 0.0 -0.0 0.0 -1.027169 100.604584 3.315559 -0.05933 -0.628892 6.108469 0.169653 0.040146 1.917092 -0.354222 -0.23865 -4.52874 0.679085 -2.306976 14.451832 4.068511 0.5462 12.27208 -1.331864 -2.466175 -3.674787 -3.26996 -2.051414 -6.541328 7.7e-05 -2.3e-05 4e-06 0.040099 -0.048761 -0.025931 0.759683 -3.739151 -10.620377 -0.678614 3.63901 -10.574063 -7.354319 -7.821485 16.874054 -68.654587 -19.591244 21.486568 -0.469333 -27.837494 0.1228 7.318381 -0.366964 2.13314 -5.88211 9.861292 0.702591 -10.936879 -0.360575 7.156211 1e-06 8.774831 -2e-06 -16.121546 18.142712 5.931604 -1.844034 2.498506 -2.507279 -10.163607 4.678948 4.62111 -20.97604 -3e-06 0.0 -21.226305 2.451698 -3.594004 -1e-06 -6e-06 -1e-06 -1.362682 2.240799 -0.746323 -21.33493 0.584909 3.008324 -13.821225 -3e-06 -0.0 -23.887192 -0.249079 -0.839484 -60.259884 2.513403 -1.496772 -0.294025 1.679688 0.833257 -14.218221 0.093215 1.300581 -34.212074 -0.287565 0.96717 -20.03323 0.964536 1.212843 0.0 -0.0 -1e-06 -3.440391 0.788234 0.501655 -15.928201 -3.167312 2.999706 -6.33883 -1e-06 -0.0 -18.123461 3.648184 -4.905673 -3e-06 0.0 -1e-06 13.011349 9.906922 18.084095 65.407692 21.363533 9.353978 0.236261 21.73344 0.203414 -7.442351 5.824508 4.475995 2.243544 -5.255041 -3.180159 14.2829 -0.826596 6.952506 -2e-06 -12.690616 0.0 16.135437 -17.528818 2.563155 1.665668 -1.955923 -2.878302 4.727802 -4.170593 4.993927 11.020536 2e-06 -2e-06 12.109062 -3.735719 -2.866787 -1e-06 -1e-06 1e-06 1.291987 -1.92855 -1.498089 14.800138 0.567467 3.865608 14.242582 -1.341738 -6.660663 19.631979 0.143927 -0.648246 49.758556 -0.696266 -6.359316 0.35303 -1.511153 -0.03194 20.222805 3.684313 2.316629 18.787287 4e-06 -1e-06 10.751636 -0.479868 1.397906 -1e-06 -0.0 1e-06 3.273808 0.305948 -0.580112 21.486828 11.830384 2.266132 8.162931 1e-06 -1e-06 18.399096 -3.798988 -4.94058 4e-06 -0.0 0.0 3.933878 7.867839 -9.96634 0.018058 -0.006503 5.73028 -5.311866 -0.494373 -1.648039 1.646453 -1.953791 -0.019642 0.0 0.0 2e-06 -0.569958 -15.221939 -10.896361 0.060193 -0.238841 8.741525 4.682699 -1.27829 -3.713456 -1.420945 0.99207 -0.817722 -0.0 0.0 -1e-06 
0.0 0.0 0.0 0.0 -0.0 0.0 -1.022545 100.665924 2.879421 -0.1127 -0.639553 6.957792 0.283461 0.043089 2.374151 -0.320577 -0.255973 -4.38188 0.701411 -2.289864 14.964231 4.084168 0.496389 13.129033 -1.37864 -2.483536 -3.656661 -3.690738 -2.054458 -6.045528 7.7e-05 -2.3e-05 5e-06 0.039102 -0.045897 -0.033039 0.751029 -3.739651 -10.60275 -0.672014 3.645735 -10.562415 -7.02391 -8.122085 17.12641 -68.440033 -21.203672 21.962488 -0.405326 -28.294056 0.082104 7.208798 -0.256544 1.80735 -5.882108 9.861288 0.702591 -10.936876 -0.360575 7.156208 2e-06 8.774828 1e-06 -16.0765 18.125441 5.958229 -1.844033 2.498505 -2.507278 -10.163604 4.678946 4.621111 -20.97603 -5e-06 2e-06 -21.226294 2.451695 -3.594002 0.0 -7e-06 -3e-06 -1.362682 2.240798 -0.746324 -21.334927 0.584908 3.008324 -13.821221 -3e-06 0.0 -23.887182 -0.24908 -0.839484 -60.26767 2.535156 -1.540159 -0.294024 1.679687 0.833255 -14.218215 0.093214 1.300582 -34.212067 -0.287567 0.967173 -20.033226 0.964535 1.212845 0.0 -0.0 -0.0 -3.44039 0.788234 0.501657 -15.928198 -3.167311 2.99971 -6.338829 -2e-06 -0.0 -18.123457 3.648182 -4.905672 -3e-06 -0.0 -2e-06 12.423595 10.247729 18.188377 65.331711 22.843372 9.886065 0.334038 21.75806 0.217858 -7.54593 5.830173 5.041732 2.243542 -5.255035 -3.180156 14.28289 -0.826594 6.952502 -3e-06 -12.690603 0.0 16.140965 -17.49971 2.547772 1.665665 -1.95592 -2.878298 4.727798 -4.170587 4.993924 11.020526 3e-06 -1e-06 12.109052 -3.735715 -2.866783 -1e-06 0.0 -1e-06 1.291985 -1.928548 -1.498086 14.800125 0.567467 3.865607 14.242569 -1.341736 -6.660657 19.631968 0.143926 -0.648247 49.7616 -0.7232 -6.385585 0.353029 -1.511151 -0.031939 20.222788 3.684309 2.316628 18.78727 5e-06 -0.0 10.751627 -0.479868 1.397905 -1e-06 -0.0 -0.0 3.273807 0.305948 -0.580111 21.486813 11.830372 2.26613 8.162926 2e-06 -2e-06 18.39908 -3.798983 -4.940574 4e-06 1e-06 -1e-06 3.832805 7.869864 -11.077049 0.018407 0.01089 5.482772 -5.312867 -0.292425 -1.167557 1.645409 -1.948165 0.06867 -0.0 -0.0 2e-06 -0.184869 -15.103027 -11.98827 0.060557 -0.242092 8.38093 4.563703 -1.359805 -3.199307 -1.419315 0.989748 -0.782524 -0.0 0.0 -1e-06 
0.0 0.0 0.0 0.0 -0.0 0.0 -1.026529 100.723816 2.453327 -0.146245 -0.631864 7.823683 0.404635 0.049819 2.836217 -0.286936 -0.270516 -4.226102 0.688406 -2.255129 15.480199 4.007135 0.487663 13.929067 -1.420477 -2.502517 -3.636687 -4.060323 -2.150862 -5.570279 7.7e-05 -2.3e-05 6e-06 0.03556 -0.039492 -0.039691 0.740326 -3.741552 -10.59024 -0.668643 3.660947 -10.555823 -6.71641 -8.441846 17.349789 -68.116524 -22.874678 22.419081 -0.346999 -28.643515 0.056147 7.116511 -0.198237 1.493383 -5.882109 9.86129 0.702591 -10.936877 -0.360576 7.156209 2e-06 8.774831 2e-06 -16.068985 18.133104 5.979994 -1.844034 2.498505 -2.507279 -10.163605 4.678948 4.621111 -20.976038 -5e-06 1e-06 -21.226301 2.451696 -3.594003 0.0 -6e-06 -1e-06 -1.362682 2.240799 -0.746323 -21.334925 0.584908 3.008326 -13.82122 -3e-06 1e-06 -23.887182 -0.249083 -0.839484 -60.303329 2.566379 -1.580231 -0.294024 1.679688 0.833255 -14.218216 0.093214 1.300581 -34.212067 -0.287566 0.967172 -20.033222 0.964536 1.212845 1e-06 -1e-06 0.0 -3.44039 0.788233 0.501655 -15.928196 -3.167313 2.999707 -6.338829 -2e-06 -1e-06 -18.123457 3.648183 -4.905673 -2e-06 -1e-06 -1e-06 11.79157 10.587379 18.295176 65.200287 24.357906 10.612471 0.388207 21.905035 0.225552 -7.663628 5.793546 5.340368 2.243542 -5.255038 -3.18016 14.282901 -0.826593 6.952507 -5e-06 -12.690612 2e-06 16.149405 -17.474421 2.529439 1.665667 -1.955921 -2.878301 4.727801 -4.170588 4.993926 11.020535 5e-06 -4e-06 12.10906 -3.735716 -2.866786 0.0 -0.0 -0.0 1.291986 -1.92855 -1.49809 14.800138 0.567471 3.865608 14.242582 -1.341734 -6.660661 19.631977 0.14393 -0.648245 49.780941 -0.738746 -6.415314 0.353029 -1.511151 -0.031939 20.222803 3.684316 2.316627 18.787287 1e-05 -1e-06 10.751636 -0.479865 1.397905 -1e-06 0.0 2e-06 3.27381 0.305947 -0.580112 21.486832 11.830386 2.266133 8.162931 4e-06 -3e-06 18.399096 -3.798983 -4.940578 4e-06 -0.0 -2e-06 3.705694 7.92721 -12.146686 0.020391 0.032112 5.119132 -5.28871 -0.170529 -0.627919 1.64638 -1.941264 0.13469 -0.0 -0.0 2e-06 0.176972 -14.92779 -13.091499 0.059421 -0.24184 8.028904 4.449585 -1.508737 -2.702529 -1.418232 0.993909 -0.701075 -0.0 0.0 -1e-06 
0.0 0.0 0.0 0.0 -0.0 0.0 -1.02976 100.775078 2.027664 -0.159005 -0.592927 8.722287 0.539061 0.062496 3.303921 -0.260072 -0.274418 -4.053406 0.648146 -2.203724 16.020123 3.840043 0.507665 14.708888 -1.471612 -2.540777 -3.615547 -4.354253 -2.365485 -5.145698 7.7e-05 -2.2e-05 5e-06 0.029401 -0.030836 -0.044744 0.728025 -3.746734 -10.585725 -0.669235 3.684258 -10.55741 -6.419615 -8.794377 17.554564 -67.672867 -24.728474 22.972322 -0.301522 -28.715834 0.050956 7.052922 -0.128348 1.224303 -5.882109 9.861288 0.70259 -10.936873 -0.360575 7.156205 0.0 8.774826 -1e-06 -16.104614 18.154743 5.994689 -1.844033 2.498505 -2.507277 -10.163603 4.678946 4.621109 -20.976027 -2e-06 -0.0 -21.226292 2.451697 -3.594001 0.0 -5e-06 -1e-06 -1.362682 2.240798 -0.746323 -21.334921 0.584911 3.008321 -13.821217 -2e-06 -1e-06 -23.887175 -0.249079 -0.839485 -60.356606 2.590651 -1.615974 -0.294025 1.679688 0.833256 -14.218212 0.093216 1.300581 -34.212059 -0.287563 0.967167 -20.03322 0.964536 1.212842 -0.0 -0.0 -1e-06 -3.440389 0.788234 0.501655 -15.928191 -3.16731 2.999706 -6.338828 -1e-06 -1e-06 -18.123455 3.648184 -4.905674 -3e-06 0.0 -1e-06 11.111021 10.90987 18.388952 64.999077 25.978868 11.542356 0.443878 22.122803 0.231129 -7.788457 5.696308 5.439849 2.243541 -5.255037 -3.180156 14.282887 -0.826596 6.952504 -1e-06 -12.690605 1e-06 16.155544 -17.464985 2.521046 1.665666 -1.955922 -2.878299 4.727798 -4.170588 4.993922 11.020523 1e-06 -2e-06 12.10905 -3.735718 -2.866783 0.0 0.0 -0.0 1.291986 -1.928549 -1.498088 14.800125 0.567466 3.865607 14.242569 -1.341737 -6.660658 19.631968 0.143925 -0.648247 49.833073 -0.760722 -6.426814 0.35303 -1.511151 -0.031939 20.222786 3.684306 2.31663 18.78727 1e-06 -1e-06 10.751627 -0.479869 1.397905 -1e-06 0.0 2e-06 3.273806 0.305947 -0.580111 21.486809 11.830371 2.266132 8.162928 1e-06 -2e-06 18.399086 -3.798988 -4.940578 4e-06 1e-06 -3e-06 3.539171 8.031565 -13.247964 0.025777 0.049878 4.726957 -5.223899 -0.132728 -0.056282 1.647088 -1.941017 0.179272 -0.0 0.0 2e-06 0.517181 -14.72813 -14.26393 0.051202 -0.234966 7.753207 4.302577 -1.748507 -2.243493 -1.417322 1.005459 -0.613336 0.0 0.0 -1e-06 
